<svg width="12" height="15" viewBox="0 0 12 15" fill="none" xmlns="http://www.w3.org/2000/svg">
<path d="M1 7.55237H7.92308C8.73913 7.55237 9.52175 7.86844 10.0988 8.43105C10.6758 8.99366 11 9.75672 11 10.5524C11 11.348 10.6758 12.1111 10.0988 12.6737C9.52175 13.2363 8.73913 13.5524 7.92308 13.5524H1V7.55237ZM1 7.55237H7.15385C7.9699 7.55237 8.75252 7.2363 9.32956 6.67369C9.90659 6.11108 10.2308 5.34802 10.2308 4.55237C10.2308 3.75672 9.90659 2.99366 9.32956 2.43105C8.75252 1.86844 7.9699 1.55237 7.15385 1.55237H1V7.55237Z" stroke="#3A3A3A" stroke-width="2" stroke-linecap="round" stroke-linejoin="round"/>
</svg>
