<svg width="19" height="17" viewBox="0 0 19 17" fill="none" xmlns="http://www.w3.org/2000/svg">
<path fill-rule="evenodd" clip-rule="evenodd" d="M0.865902 0.732288C0.68912 0.944427 0.717782 1.25971 0.92992 1.43649L3.46899 3.55238L0.92992 5.66827C0.717782 5.84505 0.68912 6.16033 0.865902 6.37247C1.04268 6.58461 1.35797 6.61327 1.5701 6.43649L4.5701 3.93649C4.6841 3.84149 4.75001 3.70077 4.75001 3.55238C4.75001 3.40399 4.6841 3.26327 4.5701 3.16827L1.5701 0.66827C1.35797 0.491488 1.04268 0.52015 0.865902 0.732288Z" fill="#3A3A3A"/>
<path fill-rule="evenodd" clip-rule="evenodd" d="M1 9.55238C1 9.27624 1.22386 9.05238 1.5 9.05238H18.5C18.7761 9.05238 19 9.27624 19 9.55238C19 9.82852 18.7761 10.0524 18.5 10.0524H1.5C1.22386 10.0524 1 9.82852 1 9.55238Z" fill="#3A3A3A"/>
<path fill-rule="evenodd" clip-rule="evenodd" d="M1 15.5524C1 15.2762 1.22386 15.0524 1.5 15.0524H18.5C18.7761 15.0524 19 15.2762 19 15.5524C19 15.8285 18.7761 16.0524 18.5 16.0524H1.5C1.22386 16.0524 1 15.8285 1 15.5524Z" fill="#3A3A3A"/>
<path fill-rule="evenodd" clip-rule="evenodd" d="M5.7429 3.55238C5.7429 3.27624 5.90778 3.05238 6.11116 3.05238H18.6317C18.8351 3.05238 19 3.27624 19 3.55238C19 3.82852 18.8351 4.05238 18.6317 4.05238H6.11116C5.90778 4.05238 5.7429 3.82852 5.7429 3.55238Z" fill="#3A3A3A"/>
</svg>
