<svg width="14" height="14" viewBox="0 0 14 14" fill="none" xmlns="http://www.w3.org/2000/svg">
<path d="M7 6.5521C7.672 6.5521 8.33125 6.69683 8.9095 6.96981C9.1715 7.0938 9.41025 7.24054 9.62575 7.41002C9.886 7.61401 10.1095 7.84874 10.2865 8.10746C10.6105 8.57767 10.7695 9.10938 10.7485 9.64633C10.7275 10.1833 10.5265 10.7052 10.1665 11.159C9.8065 11.6127 9.301 11.9809 8.7025 12.2239C8.08771 12.4703 7.42673 12.5803 6.76525 12.5463C6.11066 12.5159 5.47101 12.3404 4.8925 12.0326C4.3375 11.7312 3.8935 11.3149 3.60775 10.829M7 6.5521H1M7 6.5521H13M10.393 2.27521C10.1073 1.78925 9.66325 1.37379 9.1075 1.07156C8.52916 0.764152 7.88978 0.588952 7.2355 0.558607C6.57388 0.524022 5.91264 0.633537 5.2975 0.879579C4.699 1.12331 4.1935 1.49153 3.8335 1.94449C3.4735 2.39895 3.27325 2.92166 3.2515 3.45861C3.246 3.6161 3.25525 3.77233 3.27925 3.92732" stroke="#3A3A3A" stroke-linecap="round" stroke-linejoin="round"/>
</svg>
