<svg width="31" height="30" viewBox="0 0 31 30" fill="none" xmlns="http://www.w3.org/2000/svg">
<line x1="10.3528" y1="14.5" x2="24.3528" y2="14.5" stroke="#3A3A3A" stroke-linecap="round"/>
<line x1="10.3528" y1="8.5" x2="24.3528" y2="8.5" stroke="#3A3A3A" stroke-linecap="round"/>
<line x1="10.3528" y1="20.5" x2="24.3528" y2="20.5" stroke="#3A3A3A" stroke-linecap="round"/>
<path d="M7.26078 9.5V7.613L7.51578 7.859H6.87078V7.4H7.85478V9.5H7.26078Z" fill="#3A3A3A"/>
<path d="M6.94278 15.5V15.128L7.72878 14.393C7.78478 14.341 7.82578 14.295 7.85178 14.255C7.87978 14.215 7.89778 14.179 7.90578 14.147C7.91578 14.113 7.92078 14.082 7.92078 14.054C7.92078 13.986 7.89778 13.933 7.85178 13.895C7.80778 13.857 7.74078 13.838 7.65078 13.838C7.57478 13.838 7.50378 13.855 7.43778 13.889C7.37178 13.923 7.31778 13.974 7.27578 14.042L6.83478 13.796C6.91278 13.664 7.02578 13.558 7.17378 13.478C7.32178 13.398 7.49878 13.358 7.70478 13.358C7.86678 13.358 8.00878 13.384 8.13078 13.436C8.25278 13.488 8.34778 13.562 8.41578 13.658C8.48578 13.754 8.52078 13.867 8.52078 13.997C8.52078 14.065 8.51178 14.133 8.49378 14.201C8.47578 14.267 8.44078 14.338 8.38878 14.414C8.33878 14.488 8.26378 14.571 8.16378 14.663L7.53978 15.239L7.44078 15.029H8.57778V15.5H6.94278Z" fill="#3A3A3A"/>
<path d="M7.65678 21.542C7.51078 21.542 7.36478 21.524 7.21878 21.488C7.07478 21.452 6.94878 21.401 6.84078 21.335L7.05678 20.888C7.14078 20.944 7.23378 20.987 7.33578 21.017C7.43978 21.047 7.54078 21.062 7.63878 21.062C7.74078 21.062 7.82178 21.043 7.88178 21.005C7.94178 20.967 7.97178 20.913 7.97178 20.843C7.97178 20.781 7.94678 20.732 7.89678 20.696C7.84678 20.658 7.76478 20.639 7.65078 20.639H7.40178V20.264L7.96578 19.655L8.02278 19.859H6.94878V19.4H8.46678V19.772L7.90278 20.381L7.61178 20.216H7.77378C8.03578 20.216 8.23378 20.275 8.36778 20.393C8.50378 20.509 8.57178 20.659 8.57178 20.843C8.57178 20.963 8.53878 21.076 8.47278 21.182C8.40878 21.288 8.30978 21.375 8.17578 21.443C8.04178 21.509 7.86878 21.542 7.65678 21.542Z" fill="#3A3A3A"/>
</svg>
