<svg width="15" height="17" viewBox="0 0 15 17" fill="none" xmlns="http://www.w3.org/2000/svg">
<path d="M14.5 8.99996C14.7761 8.99996 15 8.7761 15 8.49996C15 8.22381 14.7761 7.99996 14.5 7.99996V8.99996ZM0.5 7.99996C0.223858 7.99996 0 8.22381 0 8.49996C0 8.7761 0.223858 8.99996 0.5 8.99996V7.99996ZM2 10.9844L2.49474 10.912C2.45884 10.6664 2.24821 10.4844 2 10.4844V10.9844ZM10.9852 10.3792C10.9185 10.1113 10.6472 9.94811 10.3792 10.0148C10.1113 10.0815 9.9481 10.3528 10.0148 10.6208L10.9852 10.3792ZM1.5 10.4844C1.22386 10.4844 1 10.7082 1 10.9844C1 11.2605 1.22386 11.4844 1.5 11.4844V10.4844ZM12 6.03058L11.5019 6.07445C11.5247 6.33259 11.7409 6.53058 12 6.53058V6.03058ZM7.08786 1.49999L7.0575 1.00091L7.08786 1.49999ZM3.00879 6.60829C3.06035 6.87958 3.32206 7.0577 3.59335 7.00615C3.86464 6.95459 4.04276 6.69287 3.99121 6.42159L3.00879 6.60829ZM12.5 6.53058C12.7761 6.53058 13 6.30672 13 6.03058C13 5.75443 12.7761 5.53058 12.5 5.53058V6.53058ZM14.5 7.99996H0.5V8.99996H14.5V7.99996ZM2 10.9844C1.50526 11.0567 1.50529 11.0569 1.50533 11.0572C1.50535 11.0573 1.50539 11.0576 1.50542 11.0578C1.50549 11.0582 1.50556 11.0588 1.50565 11.0593C1.50583 11.0605 1.50605 11.062 1.50632 11.0638C1.50687 11.0673 1.5076 11.072 1.50854 11.0778C1.51041 11.0894 1.51309 11.1055 1.51669 11.1257C1.52387 11.1662 1.53471 11.2233 1.54999 11.2948C1.5805 11.4375 1.6289 11.638 1.70157 11.8764C1.84631 12.3513 2.09058 12.9873 2.48941 13.619C3.29728 14.8986 4.75072 16.1643 7.22154 16.014L7.16082 15.0159C5.1426 15.1387 4.00045 14.1391 3.33498 13.0851C2.99715 12.5501 2.78532 12.0022 2.65813 11.5849C2.59484 11.3772 2.55331 11.2046 2.52789 11.0857C2.51519 11.0263 2.50656 10.9806 2.50127 10.9508C2.49863 10.9359 2.49682 10.925 2.49576 10.9185C2.49523 10.9152 2.49489 10.913 2.49472 10.9119C2.49464 10.9114 2.4946 10.9111 2.49461 10.9111C2.49461 10.9111 2.49462 10.9112 2.49464 10.9114C2.49465 10.9114 2.49468 10.9116 2.49468 10.9117C2.49471 10.9118 2.49474 10.912 2 10.9844ZM7.22154 16.014C8.43666 15.9401 9.32139 15.5585 9.94204 14.9827C10.5581 14.4112 10.8695 13.6898 11.0175 13.0116C11.165 12.3354 11.1555 11.6793 11.1122 11.2002C11.0905 10.9589 11.0597 10.7578 11.034 10.6155C11.0211 10.5442 11.0095 10.4874 11.0008 10.4473C10.9964 10.4273 10.9928 10.4114 10.9902 10.4C10.9888 10.3942 10.9877 10.3896 10.9869 10.3862C10.9865 10.3844 10.9861 10.383 10.9858 10.3818C10.9857 10.3813 10.9856 10.3807 10.9855 10.3803C10.9854 10.3801 10.9853 10.3798 10.9853 10.3797C10.9852 10.3795 10.9852 10.3792 10.5 10.5C10.0148 10.6208 10.0147 10.6206 10.0147 10.6204C10.0147 10.6204 10.0147 10.6202 10.0146 10.6201C10.0146 10.62 10.0146 10.6199 10.0146 10.6199C10.0146 10.6199 10.0146 10.6202 10.0148 10.6207C10.015 10.6218 10.0156 10.624 10.0163 10.6273C10.0179 10.6338 10.0203 10.6446 10.0235 10.6593C10.0299 10.6888 10.0393 10.7342 10.0499 10.7931C10.0712 10.9112 10.0976 11.0827 10.1163 11.2901C10.1541 11.7087 10.159 12.2551 10.0405 12.7985C9.92235 13.3399 9.68715 13.8552 9.26195 14.2496C8.84134 14.6398 8.19021 14.9532 7.16082 15.0159L7.22154 16.014ZM2 10.4844H1.5V11.4844H2V10.4844ZM12 6.03058C12.4981 5.98671 12.4981 5.98646 12.498 5.9862C12.498 5.98608 12.498 5.9858 12.498 5.98558C12.4979 5.98513 12.4979 5.9846 12.4978 5.984C12.4977 5.98281 12.4976 5.98132 12.4974 5.97954C12.4971 5.97599 12.4966 5.97128 12.496 5.96545C12.4948 5.9538 12.4931 5.93768 12.4906 5.91739C12.4858 5.87682 12.4783 5.8195 12.4671 5.74789C12.4449 5.60484 12.4081 5.40383 12.3493 5.16475C12.2321 4.68891 12.0246 4.05012 11.6614 3.41475C11.2977 2.77843 10.7706 2.13306 10.0108 1.66658C9.24601 1.19701 8.27458 0.926868 7.0575 1.00091L7.11822 1.99907C8.14565 1.93656 8.9105 2.16446 9.48758 2.51878C10.0697 2.87619 10.49 3.38053 10.7932 3.91099C11.097 4.44241 11.2758 4.98747 11.3782 5.40378C11.4292 5.61078 11.4606 5.78293 11.479 5.90151C11.4882 5.96072 11.4941 6.00634 11.4977 6.036C11.4995 6.05083 11.5006 6.06164 11.5013 6.06816C11.5016 6.07141 11.5018 6.07359 11.502 6.07465C11.502 6.07518 11.502 6.07543 11.502 6.0754C11.502 6.07538 11.502 6.0753 11.502 6.07514C11.502 6.07506 11.502 6.07489 11.502 6.07485C11.502 6.07466 11.5019 6.07445 12 6.03058ZM7.0575 1.00091C5.8421 1.07485 4.94544 1.4561 4.30244 2.02404C3.66394 2.588 3.31454 3.30146 3.12848 3.97713C2.94294 4.65093 2.91425 5.30598 2.92959 5.78573C2.9373 6.02725 2.95633 6.22857 2.97372 6.37117C2.98242 6.44256 2.99075 6.49952 2.99711 6.53974C3.0003 6.55986 3.00299 6.57582 3.005 6.58733C3.00601 6.59309 3.00684 6.59774 3.00748 6.60124C3.0078 6.603 3.00807 6.60446 3.00829 6.60564C3.0084 6.60623 3.0085 6.60674 3.00858 6.60718C3.00862 6.60741 3.00867 6.60768 3.0087 6.60779C3.00874 6.60805 3.00879 6.60829 3.5 6.51494C3.99121 6.42159 3.99124 6.42179 3.99128 6.42198C3.99129 6.42201 3.99132 6.42218 3.99133 6.42226C3.99136 6.42241 3.99138 6.4225 3.99138 6.42251C3.99139 6.42254 3.99134 6.42229 3.99124 6.42176C3.99105 6.4207 3.99066 6.41854 3.9901 6.41532C3.98897 6.40887 3.98715 6.39817 3.98483 6.3835C3.98019 6.35413 3.97354 6.30894 3.96637 6.25014C3.95201 6.13235 3.9357 5.96108 3.92908 5.75379C3.91572 5.3359 3.9423 4.78842 4.0926 4.24262C4.24238 3.69869 4.50938 3.17548 4.96444 2.77354C5.41501 2.37557 6.0891 2.06167 7.11822 1.99907L7.0575 1.00091ZM12 6.53058H12.5V5.53058H12V6.53058Z" fill="#3A3A3A"/>
</svg>
